<mxfile host="app.diagrams.net" agent="Mozilla/5.0 (Macintosh; Intel Mac OS X 10_15_7) AppleWebKit/605.1.15 (KHTML, like Gecko) Version/17.5 Safari/605.1.15" version="26.2.10">
  <diagram name="第 1 页" id="X9mxlo2_q7U3ZF1Sncux">
    <mxGraphModel dx="653" dy="432" grid="1" gridSize="10" guides="1" tooltips="1" connect="1" arrows="1" fold="1" page="1" pageScale="1" pageWidth="827" pageHeight="1169" math="0" shadow="0">
      <root>
        <mxCell id="0" />
        <mxCell id="1" parent="0" />
        <mxCell id="twK5tuVB0HvixW-dnTLF-37" value="" style="endArrow=none;html=1;rounded=0;dashed=1;" parent="1" edge="1">
          <mxGeometry width="50" height="50" relative="1" as="geometry">
            <mxPoint x="360" y="1183" as="sourcePoint" />
            <mxPoint x="810" y="1183" as="targetPoint" />
          </mxGeometry>
        </mxCell>
        <mxCell id="twK5tuVB0HvixW-dnTLF-38" style="rounded=0;orthogonalLoop=1;jettySize=auto;html=1;endArrow=none;startFill=0;" parent="1" source="twK5tuVB0HvixW-dnTLF-39" target="twK5tuVB0HvixW-dnTLF-42" edge="1">
          <mxGeometry relative="1" as="geometry" />
        </mxCell>
        <mxCell id="twK5tuVB0HvixW-dnTLF-39" value="" style="ellipse;whiteSpace=wrap;html=1;aspect=fixed;fillColor=#fff2cc;strokeColor=#d6b656;" parent="1" vertex="1">
          <mxGeometry x="470" y="1140" width="20" height="20" as="geometry" />
        </mxCell>
        <mxCell id="twK5tuVB0HvixW-dnTLF-40" value="" style="ellipse;whiteSpace=wrap;html=1;aspect=fixed;fillColor=#fff2cc;strokeColor=#d6b656;" parent="1" vertex="1">
          <mxGeometry x="500" y="1140" width="20" height="20" as="geometry" />
        </mxCell>
        <mxCell id="twK5tuVB0HvixW-dnTLF-41" value="" style="ellipse;whiteSpace=wrap;html=1;aspect=fixed;fillColor=#fff2cc;strokeColor=#d6b656;" parent="1" vertex="1">
          <mxGeometry x="530" y="1140" width="20" height="20" as="geometry" />
        </mxCell>
        <mxCell id="twK5tuVB0HvixW-dnTLF-42" value="" style="ellipse;whiteSpace=wrap;html=1;aspect=fixed;fillColor=#dae8fc;strokeColor=#6c8ebf;" parent="1" vertex="1">
          <mxGeometry x="500" y="1110" width="20" height="20" as="geometry" />
        </mxCell>
        <mxCell id="twK5tuVB0HvixW-dnTLF-43" style="rounded=0;orthogonalLoop=1;jettySize=auto;html=1;endArrow=none;startFill=0;entryX=0.5;entryY=1;entryDx=0;entryDy=0;" parent="1" source="twK5tuVB0HvixW-dnTLF-40" target="twK5tuVB0HvixW-dnTLF-42" edge="1">
          <mxGeometry relative="1" as="geometry">
            <mxPoint x="478" y="1185" as="sourcePoint" />
            <mxPoint x="512" y="1145" as="targetPoint" />
          </mxGeometry>
        </mxCell>
        <mxCell id="twK5tuVB0HvixW-dnTLF-44" style="rounded=0;orthogonalLoop=1;jettySize=auto;html=1;endArrow=classic;startFill=0;startArrow=none;endFill=1;endSize=3;strokeColor=#00CC00;" parent="1" source="twK5tuVB0HvixW-dnTLF-41" target="twK5tuVB0HvixW-dnTLF-42" edge="1">
          <mxGeometry relative="1" as="geometry">
            <mxPoint x="525" y="1180" as="sourcePoint" />
            <mxPoint x="525" y="1150" as="targetPoint" />
          </mxGeometry>
        </mxCell>
        <mxCell id="twK5tuVB0HvixW-dnTLF-45" value="" style="ellipse;whiteSpace=wrap;html=1;aspect=fixed;fillColor=#f8cecc;strokeColor=#b85450;" parent="1" vertex="1">
          <mxGeometry x="452" y="1072" width="20" height="20" as="geometry" />
        </mxCell>
        <mxCell id="twK5tuVB0HvixW-dnTLF-46" value="&lt;font style=&quot;font-size: 16px;&quot;&gt;&lt;b&gt;...&lt;/b&gt;&lt;/font&gt;" style="text;html=1;align=center;verticalAlign=middle;whiteSpace=wrap;rounded=0;" parent="1" vertex="1">
          <mxGeometry x="590" y="1065" width="60" height="30" as="geometry" />
        </mxCell>
        <mxCell id="twK5tuVB0HvixW-dnTLF-47" style="rounded=0;orthogonalLoop=1;jettySize=auto;html=1;endArrow=none;startFill=0;" parent="1" source="twK5tuVB0HvixW-dnTLF-57" target="twK5tuVB0HvixW-dnTLF-45" edge="1">
          <mxGeometry relative="1" as="geometry">
            <mxPoint x="444.14213562373095" y="1065.857864376269" as="sourcePoint" />
            <mxPoint x="427" y="1105" as="targetPoint" />
          </mxGeometry>
        </mxCell>
        <mxCell id="twK5tuVB0HvixW-dnTLF-48" value="" style="endArrow=none;html=1;rounded=0;dashed=1;" parent="1" edge="1">
          <mxGeometry width="50" height="50" relative="1" as="geometry">
            <mxPoint x="360" y="1034" as="sourcePoint" />
            <mxPoint x="810" y="1034" as="targetPoint" />
          </mxGeometry>
        </mxCell>
        <mxCell id="twK5tuVB0HvixW-dnTLF-49" value="" style="ellipse;shape=cloud;whiteSpace=wrap;html=1;" parent="1" vertex="1">
          <mxGeometry x="502" y="970" width="158" height="50" as="geometry" />
        </mxCell>
        <mxCell id="twK5tuVB0HvixW-dnTLF-50" style="rounded=0;orthogonalLoop=1;jettySize=auto;html=1;endArrow=classic;startFill=0;endSize=3;endFill=1;strokeColor=#00CC00;entryX=0.364;entryY=0.884;entryDx=0;entryDy=0;entryPerimeter=0;" parent="1" source="twK5tuVB0HvixW-dnTLF-45" target="twK5tuVB0HvixW-dnTLF-49" edge="1">
          <mxGeometry relative="1" as="geometry">
            <mxPoint x="453" y="1075" as="sourcePoint" />
            <mxPoint x="487" y="1035" as="targetPoint" />
          </mxGeometry>
        </mxCell>
        <mxCell id="twK5tuVB0HvixW-dnTLF-51" value="&lt;font style=&quot;font-size: 16px;&quot;&gt;&lt;b&gt;...&lt;/b&gt;&lt;/font&gt;" style="text;html=1;align=center;verticalAlign=middle;whiteSpace=wrap;rounded=0;" parent="1" vertex="1">
          <mxGeometry x="558" y="1135" width="60" height="30" as="geometry" />
        </mxCell>
        <mxCell id="twK5tuVB0HvixW-dnTLF-52" value="" style="endArrow=classic;html=1;rounded=0;entryX=0.55;entryY=0.95;entryDx=0;entryDy=0;entryPerimeter=0;exitX=1;exitY=0;exitDx=0;exitDy=0;edgeStyle=orthogonalEdgeStyle;curved=1;strokeColor=#FF0000;endSize=3;" parent="1" target="twK5tuVB0HvixW-dnTLF-49" edge="1">
          <mxGeometry width="50" height="50" relative="1" as="geometry">
            <mxPoint x="550.002135623731" y="1149.357864376269" as="sourcePoint" />
            <mxPoint x="634.36" y="960" as="targetPoint" />
            <Array as="points">
              <mxPoint x="589" y="1149" />
              <mxPoint x="589" y="1027" />
            </Array>
          </mxGeometry>
        </mxCell>
        <mxCell id="twK5tuVB0HvixW-dnTLF-53" style="rounded=0;orthogonalLoop=1;jettySize=auto;html=1;endArrow=none;startFill=0;" parent="1" source="twK5tuVB0HvixW-dnTLF-54" target="twK5tuVB0HvixW-dnTLF-57" edge="1">
          <mxGeometry relative="1" as="geometry" />
        </mxCell>
        <mxCell id="twK5tuVB0HvixW-dnTLF-54" value="" style="ellipse;whiteSpace=wrap;html=1;aspect=fixed;fillColor=#fff2cc;strokeColor=#d6b656;" parent="1" vertex="1">
          <mxGeometry x="380" y="1140" width="20" height="20" as="geometry" />
        </mxCell>
        <mxCell id="twK5tuVB0HvixW-dnTLF-55" value="" style="ellipse;whiteSpace=wrap;html=1;aspect=fixed;fillColor=#fff2cc;strokeColor=#d6b656;" parent="1" vertex="1">
          <mxGeometry x="410" y="1140" width="20" height="20" as="geometry" />
        </mxCell>
        <mxCell id="twK5tuVB0HvixW-dnTLF-56" value="" style="ellipse;whiteSpace=wrap;html=1;aspect=fixed;fillColor=#fff2cc;strokeColor=#d6b656;" parent="1" vertex="1">
          <mxGeometry x="440" y="1140" width="20" height="20" as="geometry" />
        </mxCell>
        <mxCell id="twK5tuVB0HvixW-dnTLF-57" value="" style="ellipse;whiteSpace=wrap;html=1;aspect=fixed;fillColor=#dae8fc;strokeColor=#6c8ebf;" parent="1" vertex="1">
          <mxGeometry x="410" y="1110" width="20" height="20" as="geometry" />
        </mxCell>
        <mxCell id="twK5tuVB0HvixW-dnTLF-58" style="rounded=0;orthogonalLoop=1;jettySize=auto;html=1;endArrow=none;startFill=0;entryX=0.5;entryY=1;entryDx=0;entryDy=0;" parent="1" source="twK5tuVB0HvixW-dnTLF-55" target="twK5tuVB0HvixW-dnTLF-57" edge="1">
          <mxGeometry relative="1" as="geometry">
            <mxPoint x="388" y="1185" as="sourcePoint" />
            <mxPoint x="422" y="1145" as="targetPoint" />
          </mxGeometry>
        </mxCell>
        <mxCell id="twK5tuVB0HvixW-dnTLF-59" style="rounded=0;orthogonalLoop=1;jettySize=auto;html=1;endArrow=none;startFill=0;" parent="1" source="twK5tuVB0HvixW-dnTLF-56" target="twK5tuVB0HvixW-dnTLF-57" edge="1">
          <mxGeometry relative="1" as="geometry">
            <mxPoint x="435" y="1180" as="sourcePoint" />
            <mxPoint x="435" y="1150" as="targetPoint" />
          </mxGeometry>
        </mxCell>
        <mxCell id="twK5tuVB0HvixW-dnTLF-60" style="rounded=0;orthogonalLoop=1;jettySize=auto;html=1;endArrow=classic;startFill=0;strokeColor=#00CC00;endFill=1;endSize=3;" parent="1" source="twK5tuVB0HvixW-dnTLF-42" target="twK5tuVB0HvixW-dnTLF-45" edge="1">
          <mxGeometry relative="1" as="geometry">
            <mxPoint x="437" y="1123" as="sourcePoint" />
            <mxPoint x="467" y="1097" as="targetPoint" />
          </mxGeometry>
        </mxCell>
        <mxCell id="twK5tuVB0HvixW-dnTLF-61" style="rounded=0;orthogonalLoop=1;jettySize=auto;html=1;endArrow=none;startFill=0;" parent="1" source="twK5tuVB0HvixW-dnTLF-62" target="twK5tuVB0HvixW-dnTLF-65" edge="1">
          <mxGeometry relative="1" as="geometry" />
        </mxCell>
        <mxCell id="twK5tuVB0HvixW-dnTLF-62" value="" style="ellipse;whiteSpace=wrap;html=1;aspect=fixed;fillColor=#fff2cc;strokeColor=#d6b656;" parent="1" vertex="1">
          <mxGeometry x="610" y="1140" width="20" height="20" as="geometry" />
        </mxCell>
        <mxCell id="twK5tuVB0HvixW-dnTLF-63" value="" style="ellipse;whiteSpace=wrap;html=1;aspect=fixed;fillColor=#fff2cc;strokeColor=#d6b656;" parent="1" vertex="1">
          <mxGeometry x="640" y="1140" width="20" height="20" as="geometry" />
        </mxCell>
        <mxCell id="twK5tuVB0HvixW-dnTLF-64" value="" style="ellipse;whiteSpace=wrap;html=1;aspect=fixed;fillColor=#fff2cc;strokeColor=#d6b656;" parent="1" vertex="1">
          <mxGeometry x="670" y="1140" width="20" height="20" as="geometry" />
        </mxCell>
        <mxCell id="twK5tuVB0HvixW-dnTLF-65" value="" style="ellipse;whiteSpace=wrap;html=1;aspect=fixed;fillColor=#dae8fc;strokeColor=#6c8ebf;" parent="1" vertex="1">
          <mxGeometry x="640" y="1110" width="20" height="20" as="geometry" />
        </mxCell>
        <mxCell id="twK5tuVB0HvixW-dnTLF-66" style="rounded=0;orthogonalLoop=1;jettySize=auto;html=1;endArrow=none;startFill=0;entryX=0.5;entryY=1;entryDx=0;entryDy=0;" parent="1" source="twK5tuVB0HvixW-dnTLF-63" target="twK5tuVB0HvixW-dnTLF-65" edge="1">
          <mxGeometry relative="1" as="geometry">
            <mxPoint x="618" y="1185" as="sourcePoint" />
            <mxPoint x="652" y="1145" as="targetPoint" />
          </mxGeometry>
        </mxCell>
        <mxCell id="twK5tuVB0HvixW-dnTLF-67" style="rounded=0;orthogonalLoop=1;jettySize=auto;html=1;endArrow=none;startFill=0;" parent="1" source="twK5tuVB0HvixW-dnTLF-64" target="twK5tuVB0HvixW-dnTLF-65" edge="1">
          <mxGeometry relative="1" as="geometry">
            <mxPoint x="665" y="1180" as="sourcePoint" />
            <mxPoint x="665" y="1150" as="targetPoint" />
          </mxGeometry>
        </mxCell>
        <mxCell id="twK5tuVB0HvixW-dnTLF-68" style="rounded=0;orthogonalLoop=1;jettySize=auto;html=1;endSize=3;strokeColor=#00CC00;" parent="1" source="twK5tuVB0HvixW-dnTLF-69" target="twK5tuVB0HvixW-dnTLF-41" edge="1">
          <mxGeometry relative="1" as="geometry" />
        </mxCell>
        <mxCell id="twK5tuVB0HvixW-dnTLF-69" value="" style="ellipse;whiteSpace=wrap;html=1;aspect=fixed;fillColor=#f5f5f5;strokeColor=#666666;fontColor=#333333;" parent="1" vertex="1">
          <mxGeometry x="546" y="1198.97" width="20" height="20" as="geometry" />
        </mxCell>
        <mxCell id="twK5tuVB0HvixW-dnTLF-70" value="" style="sketch=0;outlineConnect=0;fontColor=#232F3E;gradientColor=none;fillColor=#ED7100;strokeColor=none;dashed=0;verticalLabelPosition=bottom;verticalAlign=top;align=center;html=1;fontSize=12;fontStyle=0;aspect=fixed;pointerEvents=1;shape=mxgraph.aws4.ecs_task;" parent="1" vertex="1">
          <mxGeometry x="566" y="1186" width="10" height="12.97" as="geometry" />
        </mxCell>
        <mxCell id="twK5tuVB0HvixW-dnTLF-71" value="&lt;font style=&quot;font-size: 8px;&quot;&gt;&lt;b&gt;任务请求&lt;/b&gt;&lt;/font&gt;" style="text;html=1;align=center;verticalAlign=middle;resizable=0;points=[];autosize=1;strokeColor=none;fillColor=none;" parent="1" vertex="1">
          <mxGeometry x="566" y="1177.48" width="60" height="30" as="geometry" />
        </mxCell>
        <mxCell id="twK5tuVB0HvixW-dnTLF-72" value="&lt;b&gt;云端节点&lt;/b&gt;" style="text;html=1;align=center;verticalAlign=middle;resizable=0;points=[];autosize=1;strokeColor=none;fillColor=none;" parent="1" vertex="1">
          <mxGeometry x="547" y="981" width="70" height="30" as="geometry" />
        </mxCell>
        <mxCell id="twK5tuVB0HvixW-dnTLF-73" value="" style="endArrow=classic;html=1;rounded=0;" parent="1" edge="1">
          <mxGeometry width="50" height="50" relative="1" as="geometry">
            <mxPoint x="720" y="987" as="sourcePoint" />
            <mxPoint x="720" y="1217" as="targetPoint" />
          </mxGeometry>
        </mxCell>
        <mxCell id="twK5tuVB0HvixW-dnTLF-74" value="&lt;div style=&quot;line-height: 100%;&quot;&gt;&lt;font style=&quot;font-size: 10px; line-height: 100%;&quot;&gt;从&lt;/font&gt;&lt;div&gt;&lt;font style=&quot;font-size: 10px; line-height: 100%;&quot;&gt;云&lt;/font&gt;&lt;/div&gt;&lt;div&gt;&lt;font style=&quot;font-size: 10px; line-height: 100%;&quot;&gt;端&lt;/font&gt;&lt;/div&gt;&lt;div&gt;&lt;font style=&quot;font-size: 10px; line-height: 100%;&quot;&gt;到&lt;/font&gt;&lt;/div&gt;&lt;div&gt;&lt;font style=&quot;font-size: 10px; line-height: 100%;&quot;&gt;设&lt;/font&gt;&lt;/div&gt;&lt;div&gt;&lt;font style=&quot;font-size: 10px; line-height: 100%;&quot;&gt;备&lt;/font&gt;&lt;/div&gt;&lt;div&gt;&lt;font style=&quot;font-size: 10px; line-height: 100%;&quot;&gt;的&lt;/font&gt;&lt;/div&gt;&lt;div&gt;&lt;font style=&quot;font-size: 10px; line-height: 100%;&quot;&gt;连&lt;/font&gt;&lt;/div&gt;&lt;div&gt;&lt;font style=&quot;font-size: 10px; line-height: 100%;&quot;&gt;续&lt;/font&gt;&lt;/div&gt;&lt;div&gt;&lt;font style=&quot;font-size: 10px; line-height: 100%;&quot;&gt;体&lt;/font&gt;&lt;/div&gt;&lt;/div&gt;" style="text;html=1;align=center;verticalAlign=middle;resizable=0;points=[];autosize=1;strokeColor=none;fillColor=none;" parent="1" vertex="1">
          <mxGeometry x="716" y="1044.48" width="30" height="130" as="geometry" />
        </mxCell>
        <mxCell id="twK5tuVB0HvixW-dnTLF-75" value="" style="image;html=1;image=img/lib/clip_art/networking/Cloud_Server_128x128.png" parent="1" vertex="1">
          <mxGeometry x="752.01" y="990" width="53.18" height="40.52" as="geometry" />
        </mxCell>
        <mxCell id="twK5tuVB0HvixW-dnTLF-76" value="" style="image;html=1;image=img/lib/clip_art/computers/Server_128x128.png" parent="1" vertex="1">
          <mxGeometry x="758.97" y="1065" width="40" height="30" as="geometry" />
        </mxCell>
        <mxCell id="twK5tuVB0HvixW-dnTLF-77" value="" style="image;html=1;image=img/lib/clip_art/computers/Server_Tower_128x128.png" parent="1" vertex="1">
          <mxGeometry x="757.97" y="1056" width="27.34" height="38.33" as="geometry" />
        </mxCell>
        <mxCell id="twK5tuVB0HvixW-dnTLF-78" value="" style="image;html=1;image=img/lib/clip_art/computers/iMac_128x128.png" parent="1" vertex="1">
          <mxGeometry x="754.595" y="1100" width="20" height="30" as="geometry" />
        </mxCell>
        <mxCell id="twK5tuVB0HvixW-dnTLF-79" value="" style="image;html=1;image=img/lib/clip_art/computers/Laptop_128x128.png" parent="1" vertex="1">
          <mxGeometry x="776.595" y="1110" width="26" height="25" as="geometry" />
        </mxCell>
        <mxCell id="twK5tuVB0HvixW-dnTLF-80" value="" style="image;html=1;image=img/lib/clip_art/computers/iPad_128x128.png" parent="1" vertex="1">
          <mxGeometry x="768.215" y="1135" width="18" height="30" as="geometry" />
        </mxCell>
        <mxCell id="twK5tuVB0HvixW-dnTLF-81" value="" style="sketch=0;outlineConnect=0;fontColor=#232F3E;gradientColor=none;fillColor=#666666;strokeColor=none;dashed=0;verticalLabelPosition=bottom;verticalAlign=top;align=center;html=1;fontSize=12;fontStyle=0;aspect=fixed;pointerEvents=1;shape=mxgraph.aws4.camera;" parent="1" vertex="1">
          <mxGeometry x="752.005" y="1190.5" width="23.5" height="23.5" as="geometry" />
        </mxCell>
        <mxCell id="twK5tuVB0HvixW-dnTLF-82" value="" style="sketch=0;outlineConnect=0;fontColor=#232F3E;gradientColor=none;fillColor=#484847;strokeColor=none;dashed=0;verticalLabelPosition=bottom;verticalAlign=top;align=center;html=1;fontSize=12;fontStyle=0;aspect=fixed;pointerEvents=1;shape=mxgraph.aws4.iot_thing_temperature_humidity_sensor;" parent="1" vertex="1">
          <mxGeometry x="781.005" y="1190.5" width="24" height="24" as="geometry" />
        </mxCell>
        <mxCell id="WfUaaC4lYNBdjRh7i4_d-1" value="&lt;b&gt;边端节点&lt;/b&gt;" style="text;html=1;align=center;verticalAlign=middle;resizable=0;points=[];autosize=1;strokeColor=none;fillColor=none;" vertex="1" parent="1">
          <mxGeometry x="360" y="1040" width="70" height="30" as="geometry" />
        </mxCell>
      </root>
    </mxGraphModel>
  </diagram>
</mxfile>
